<svg enable-background="new 0 0 100 100" viewBox="0 0 100 100" xmlns="http://www.w3.org/2000/svg"><g fill="#fff"><path d="m77.4 68.4c0-.3-.1-.5-.3-.7s-.4-.3-.7-.3c-.6 0-1.1.3-1.5 1s-.6 1.5-.6 2.5c.9-.2 1.7-.6 2.2-1 .6-.4.9-.9.9-1.5z"/><path d="m39 41.1c-.3.8-.5 1.6-.5 2.5 0 .5.1.9.3 1.1s.5.4.8.4.7-.2 1-.6.6-1 .7-1.7l.9-4.4c-.7 0-1.3.3-1.9.8-.5.5-1 1.1-1.3 1.9z"/><path d="m52.2 69.9c-.3.8-.5 1.6-.5 2.5 0 .5.1.9.3 1.1s.5.4.8.4.7-.2 1-.6.6-1 .7-1.7l.9-4.4c-.7 0-1.3.3-1.9.8-.5.5-.9 1.1-1.3 1.9z"/><path d="m62.3 81.6c-.5.8-.8 1.6-.8 2.2 0 .3.1.5.2.7s.3.3.5.3c.4 0 .9-.5 1.4-1.4s1-2.5 1.5-4.6c-1.4 1-2.3 2-2.8 2.8z"/><path d="m63 54.5c0 .5.1.9.2 1.2s.3.4.4.4c.4 0 .8-.9 1.1-2.8s.5-4.2.6-7c-.7 1.6-1.2 3.1-1.6 4.6-.5 1.3-.7 2.6-.7 3.6z"/><path d="m63.5 69.9c-.3.8-.5 1.6-.5 2.5 0 .5.1.9.3 1.1s.5.4.8.4c.4 0 .7-.2 1.1-.7.3-.4.6-1.1.7-1.9l.8-4.1c-.7 0-1.3.3-1.8.8s-1 1.1-1.4 1.9z"/><path d="m70.4 38.6c-.6 0-1.3.6-2.1 1.8v3.1 1.7c.6-.1 1.1-.4 1.6-.9s.9-1.1 1.2-1.9c.3-.7.4-1.5.4-2.3 0-.5-.1-.8-.3-1.1-.3-.3-.5-.4-.8-.4z"/><path d="m89.9 39.6c0-.3-.1-.5-.3-.7s-.4-.3-.7-.3c-.6 0-1.1.3-1.5 1s-.6 1.5-.6 2.5c.9-.2 1.7-.6 2.2-1 .6-.4.9-.9.9-1.5z"/><path d="m50 0c-27.6 0-50 22.4-50 50s22.4 50 50 50 50-22.4 50-50-22.4-50-50-50zm-20.3 58.7c-.9 0-1.6 0-2.1 0 0 .2-.2 1.1-.4 2.6-.3 1.7-.5 2.8-.5 3.1l-.5 3.1c-.4 2.4-.6 4.3-.8 5.9h1.4c.8 0 1.4.1 1.7.3s.5.6.5 1-.2.8-.5 1.1-.8.4-1.4.4c-.4 0-1 0-1.9 0-.8 0-1.3 0-1.6 0-1 0-2.1.1-3.3.3-.5.1-.9.1-1.1.1-.4 0-.6-.1-.9-.3-.2-.2-.4-.5-.4-.8 0-.6.3-1 .8-1.3s1.2-.5 2.2-.5h1.1l.1-.5c.4-2.6.7-4.4.8-5.4l.5-3.1c.3-1.9.6-3.8.9-5.7h-2c-.6 0-1-.1-1.2-.3s-.3-.4-.3-.8c0-1.1.8-1.7 2.4-1.8h2.7 4.4c.4 0 .8.1 1.1.3s.4.4.4.7c0 .5-.2.9-.5 1.2-.6.3-1 .4-1.6.4zm51 15.5c-.4.7-1 1.2-1.8 1.6-.7.4-1.6.6-2.6.6-1.5 0-2.7-.5-3.6-1.4-.3-.3-.5-.7-.7-1.2-1.1.7-1.9 1.3-2.4 1.7l-1.5 1c-.6 3.3-1.4 5.9-2.4 7.8s-2.2 2.8-3.8 2.8c-.8 0-1.5-.3-2-.8s-.8-1.2-.8-2c0-1.1.4-2.4 1.3-3.7s2.6-2.9 5-4.8l.1-.9c-.3.4-.6.8-1.1 1-.4.2-.9.3-1.3.3-1 0-1.8-.4-2.4-1.1-.1-.2-.2-.3-.3-.5-.3.3-.6.5-.8.7-.7.6-1.4.8-2.1.8-.5 0-1-.2-1.5-.5-.4-.4-.8-.9-1-1.5-.8 1.3-1.9 2-3.1 2-1 0-1.8-.4-2.4-1.1-.1-.2-.2-.3-.3-.5-.3.3-.6.5-1 .8-.8.5-1.7.8-2.7.8-.8 0-1.4-.2-1.8-.7s-.6-1.2-.6-2.1c0-.4.1-1.2.3-2.4.2-1 .3-1.7.3-2.1 0-.3-.1-.4-.3-.4s-.5.3-.9.8-.8 1.2-1.2 2.1-.7 1.8-.9 2.8c-.2.8-.4 1.3-.6 1.5s-.6.4-1.1.4-.9-.3-1.2-.8-.4-1.1-.4-1.8c0-.6.1-1.5.2-2.6.1-1 .2-1.7.2-2s-.1-.4-.3-.4-.5.3-.9.9-.7 1.3-1.1 2.2c-.3.9-.6 1.8-.8 2.6s-.4 1.3-.6 1.5c-.2.3-.6.4-1.1.4-.6 0-1-.3-1.3-1s-.4-1.7-.4-3.1c0-2.1.3-4.1.9-5.9.1-.5.4-.8.7-1s.8-.3 1.4-.3c.3 0 .5 0 .7.1.1.1.2.2.2.5s-.1.8-.4 1.7c-.2.6-.3 1.2-.4 1.7s-.2 1.1-.2 1.8c.4-1.2.9-2.3 1.5-3.2s1.2-1.5 1.8-1.9 1.2-.6 1.8-.6 1 .1 1.2.4.3.6.3 1.2c0 .5-.2 1.4-.5 2.8-.1.6-.2 1-.3 1.3.8-2 1.7-3.4 2.7-4.3s1.9-1.3 2.7-1.3c1 0 1.6.5 1.6 1.6 0 .6-.2 1.8-.5 3.4-.3 1.4-.5 2.3-.5 2.8 0 .6.2 1 .7 1 .3 0 .7-.2 1.1-.6l.8-.8c0-1.2.3-2.4.9-3.5s1.4-2.1 2.4-2.8 2-1 3.1-1c.4 0 .6.1.7.2s.2.4.3.7c.3-.1.7-.1 1.1-.1.8 0 1.2.3 1.2.8 0 .3-.1 1.1-.4 2.4-.4 1.8-.6 3.1-.6 3.8 0 .2.1.4.2.6.1.1.3.2.5.2.3 0 .7-.2 1.1-.6.2-.2.5-.5.8-.8 0-1.2.3-2.4.9-3.5s1.4-2.1 2.4-2.8 2-1 3.1-1c.4 0 .6.1.7.2s.2.4.3.7c.3-.1.7-.1 1.1-.1s.7.1.9.2.3.4.3.7v.5c-.1.5-.3 1.8-.6 3.8-.1.4-.1.8-.2 1.3s-.1.9-.2 1.5c1-.8 2-1.5 3-2.1 0-.1 0-.2 0-.3 0-1.1.2-2.1.7-3.1s1.1-1.7 1.9-2.3 1.8-.8 2.8-.8c.9 0 1.7.3 2.2.8.6.6.8 1.3.8 2.2 0 1.1-.4 2.1-1.2 2.8-.8.8-2.1 1.4-4 1.9.4.7 1 1.1 1.9 1.1.7 0 1.2-.2 1.6-.5s.9-.8 1.5-1.5c.2-.2.4-.4.6-.4s.4.1.5.3.2.5.2.8c.3.6.2 1.1-.1 1.6zm10.7-27.2c-.7.4-1.6.6-2.6.6-1.5 0-2.7-.5-3.6-1.4-.1-.2-.3-.3-.4-.5-.4.4-.8.8-1.3 1.1-.8.5-1.7.8-2.7.8-1.4 0-2.5-.6-3.1-1.9-.1-.1-.1-.3-.2-.4-.5.6-1.1 1.1-1.7 1.5-.8.5-1.7.8-2.7.8-.8 0-1.5-.3-2.1-.9-.9.6-1.9.9-2.9.9-.2 3.1-.7 5.7-1.4 7.7-.7 2.1-1.8 3.1-3.2 3.1-.9 0-1.5-.3-1.9-.9s-.6-1.5-.6-2.6c0-1.6.4-3.4 1.1-5.5.2-.6.5-1.3.8-2-.4.1-.8.2-1.3.2-.8 0-1.4-.2-1.8-.7s-.6-1.2-.6-2.1c0-.4.1-1.2.3-2.4.2-1 .3-1.7.3-2.1 0-.3-.1-.4-.3-.4s-.5.3-.9.8-.8 1.2-1.2 2.1-.7 1.8-.9 2.8c-.2.8-.4 1.3-.6 1.5-.2.3-.6.4-1.1.4s-.9-.3-1.2-.8-.4-1.1-.4-1.8c0-.6.1-1.5.2-2.6.1-1 .2-1.7.2-2s-.1-.4-.3-.4-.5.3-.9.9-.7 1.3-1.1 2.2c-.3.9-.6 1.8-.8 2.6s-.4 1.3-.6 1.5c-.2.3-.6.4-1.1.4-.6 0-1-.3-1.3-1-.1-.2-.1-.4-.2-.6-.3.3-.6.5-.8.7-.7.6-1.4.8-2.1.8-.5 0-1-.2-1.5-.5-.4-.4-.8-.9-1-1.5-.8 1.3-1.9 2-3.1 2-1 0-1.8-.4-2.4-1.1-.1-.1-.2-.3-.3-.4-.3.2-.6.5-.9.7-.8.6-1.8.8-2.8.8-.8 0-1.5-.2-2.2-.5-.6-.3-1.1-.7-1.5-1.3-.9 1.2-2 1.7-3.2 1.7-.9 0-1.6-.3-2.1-.8-.1-.1-.2-.3-.3-.4-.8.3-1.8.6-3 .8-1.5.3-3 .4-4.4.4-2 0-3.7-.2-5.1-.7s-2.4-1.1-3-1.9c-.7-.8-1-1.7-1-2.7 0-1.4.4-2.5 1.3-3.5s2.2-1.7 3.9-2.1c-.9-.3-1.7-.8-2.2-1.4s-.8-1.5-.8-2.3c0-1.2.4-2.2 1.1-3.1s1.7-1.6 2.9-2.1 2.6-.7 4.1-.7c2 0 3.5.4 4.5 1.3s1.5 2 1.5 3.3c0 .9-.2 1.7-.5 2.3s-.8.9-1.5.9c-.4 0-.8-.1-1.1-.3s-.4-.5-.4-.9c0-.3 0-.6.1-.9.1-.5.1-.9.1-1.1 0-.6-.2-1-.6-1.4s-1.2-.5-2.2-.5c-1.4 0-2.4.3-3.3.9-.8.6-1.2 1.4-1.2 2.3 0 .8.3 1.4.9 1.9s1.6.8 3 .8c.4 0 .6.1.7.2s.2.4.2.7c0 1.1-.5 1.6-1.4 1.6-1.3 0-2.4.2-3.3.6s-1.4 1-1.8 1.5-.6 1.1-.6 1.7c0 1 .5 1.7 1.4 2.2s2.4.8 4.4.8c1.3 0 2.7-.2 4.2-.5 1-.2 1.9-.5 2.8-.7.1-.2.2-.5.3-.7.4-.5.9-.7 1.6-.7.6 0 .9.2.9.6v.6c0 .6-.1.9-.1 1 0 .5.2.7.6.7.3 0 .6-.2.9-.5.3-.4.5-.9.7-1.5s.3-1.3.3-2.1c0-.6-.1-1.1-.2-1.5s-.3-.6-.5-.6-.3 0-.4.1-.2.2-.2.4c-.1.3-.2.5-.4.6-.2.2-.4.2-.8.2s-.6-.1-.8-.4c-.2-.2-.3-.6-.3-1.1 0-.8.2-1.5.7-1.9.5-.5 1.1-.7 1.9-.7.7 0 1.3.2 1.8.5s1 .8 1.2 1.4c.5-.6 1-1.1 1.6-1.4s1.2-.5 1.8-.5 1.1.1 1.4.4.5.8.5 1.4c0 .7-.1 1.3-.4 1.7s-.6.6-1 .6-.6-.1-.7-.2-.2-.4-.3-.6c0-.2-.1-.3-.1-.4-.1-.1-.2-.1-.3-.1-.2 0-.4.2-.6.5-.2.4-.4.8-.6 1.4s-.2 1.2-.2 1.8c0 .8.2 1.3.5 1.7.4.4.9.6 1.5.6s1.2-.2 1.8-.6c.2-.2.5-.4.8-.7 0 0 0 0 0-.1 0-1.3.3-2.5.9-3.6s1.4-2.1 2.4-2.8 2-1 3.1-1c.4 0 .6.1.7.2s.2.4.3.7c.3-.1.7-.1 1.1-.1.8 0 1.2.3 1.2.8 0 .3-.1 1.1-.4 2.4-.4 1.8-.6 3.1-.6 3.8 0 .2.1.4.2.6s.3.2.5.2c.3 0 .7-.2 1.1-.6.3-.3.7-.7 1.2-1.3 0-1.9.3-3.7.9-5.5.1-.5.4-.8.7-1s.8-.3 1.4-.3c.3 0 .5 0 .7.1.1.1.2.2.2.5s-.1.8-.4 1.7c-.2.6-.3 1.2-.4 1.7-.4.8-.5 1.4-.5 2.1.4-1.2.9-2.3 1.5-3.2s1.2-1.5 1.8-1.9 1.2-.6 1.8-.6 1 .1 1.2.4.3.6.3 1.2c0 .5-.2 1.4-.5 2.8-.1.6-.2 1-.3 1.3.8-2 1.7-3.4 2.7-4.3s1.9-1.3 2.7-1.3c1 0 1.6.5 1.6 1.6 0 .6-.2 1.8-.5 3.4-.3 1.4-.5 2.3-.5 2.8 0 .6.2 1 .7 1 .3 0 .7-.2 1.1-.6.3-.3.7-.7 1.2-1.3.1-.2.2-.4.3-.5 0-2.3 0-4 0-4.9 0-.5.2-.8.6-1.1s.9-.4 1.4-.4c.3 0 .6.1.7.2.2.1.2.4.3.8v.9c.5-.6 1-1.1 1.5-1.4s1-.4 1.6-.4c.9 0 1.6.4 2.2 1.1s.9 1.7.9 2.8c0 .8-.1 1.7-.4 2.5s-.6 1.5-1.1 2.2c.3.1.6.1.8.1.5 0 1-.2 1.5-.6.4-.3.9-.9 1.5-1.6-.1-.7-.2-1.3-.2-2.1 0-2 .3-4.2.8-6.7s1.2-4.6 2.2-6.4 2.2-2.7 3.5-2.7c.8 0 1.4.4 1.8 1.1s.7 1.7.7 3.1c0 1.9-.5 4.1-1.6 6.6s-2.5 5-4.3 7.5c.1.7.3 1.1.6 1.4s.6.4 1 .4c.7 0 1.2-.2 1.7-.6.3-.2.6-.5 1-.9 0-.3-.1-.6-.1-1 0-1.1.2-2.1.7-3.1s1.1-1.7 1.9-2.3 1.8-.8 2.8-.8c.9 0 1.7.3 2.2.8.6.6.8 1.3.8 2.2 0 1.1-.4 2.1-1.2 2.8-.8.8-2.1 1.4-4 1.9.4.7 1 1.1 1.9 1.1.7 0 1.2-.2 1.6-.5s.9-.8 1.5-1.5c.2-.2.4-.4.6-.4s.4.1.5.3.2.5.2.8c0 .6-.1 1.1-.4 1.5-.1.5-.7 1.1-1.4 1.5z"/><path d="m83.3 29.1c0-1.2-.2-1.8-.7-1.8-.4 0-.8.7-1.2 2-.5 1.3-.9 3-1.2 4.9-.4 2-.5 3.9-.6 5.7 1.1-1.9 2-3.7 2.7-5.6.6-2 1-3.7 1-5.2z"/></g></svg>